<?xml version="1.0" standalone="no"?>
<!DOCTYPE svg PUBLIC "-//W3C//DTD SVG 20010904//EN"
 "http://www.w3.org/TR/2001/REC-SVG-20010904/DTD/svg10.dtd">
<svg version="1.0" xmlns="http://www.w3.org/2000/svg"
 width="238.000000pt" height="238.000000pt" viewBox="0 0 238.000000 238.000000"
 preserveAspectRatio="xMidYMid meet">
<metadata>
Created by potrace 1.14, written by Peter Selinger 2001-2017
</metadata>
<g transform="translate(0.000000,238.000000) scale(0.100000,-0.100000)"
fill="#000000" stroke="none">
<path d="M320 1245 l1 -315 175 0 174 0 1 25 c1 14 1 37 2 53 l1 27 -109 5
-110 5 0 255 0 255 -68 3 -67 3 0 -316z"/>
<path d="M964 1549 c-147 -18 -265 -153 -265 -301 0 -129 64 -232 181 -290 43
-22 55 -23 300 -23 243 0 257 1 300 22 25 12 62 36 82 53 48 39 98 140 103
207 4 57 -8 122 -24 133 -9 5 -109 6 -154 1 -4 -1 -1 -11 7 -23 23 -36 29 -93
16 -135 -16 -49 -72 -101 -118 -109 -51 -10 -357 -11 -410 -2 -175 31 -184
272 -11 318 22 6 76 10 120 8 l81 -2 33 45 c17 25 46 57 64 71 17 15 31 28 31
30 0 6 -285 3 -336 -3z"/>
<path d="M1438 1545 c-29 -6 -68 -19 -86 -29 -47 -24 -107 -89 -133 -143 -26
-53 -37 -173 -20 -215 10 -27 12 -28 92 -28 73 0 80 2 74 18 -38 89 -37 133 5
191 44 62 62 66 305 66 209 0 222 -1 255 -22 95 -59 106 -194 21 -266 -37 -31
-67 -38 -183 -40 l-87 -3 -29 -39 c-16 -22 -45 -55 -66 -73 l-38 -33 179 2
c149 1 186 4 229 20 165 62 247 258 174 414 -42 89 -96 140 -181 171 -54 20
-427 26 -511 9z"/>
</g>
</svg>
